<svg width="1200" height="760" viewBox="0 0 1200 760" xmlns="http://www.w3.org/2000/svg" font-family="Arial, Helvetica, sans-serif">
  <rect width="1200" height="760" fill="#F5F7FA"/>
  <rect x="60" y="40" width="1080" height="680" rx="16" fill="#FFFFFF" stroke="#E1E5EA" stroke-width="1"/>

  <!-- Top nav -->
  <line x1="60" y1="120" x2="1140" y2="120" stroke="#E1E5EA" stroke-width="1"/>
  <rect x="92" y="64" width="36" height="36" rx="8" fill="#1E5CA8"/>
  <rect x="105" y="72" width="10" height="20" rx="2" fill="#FFFFFF"/>
  <rect x="98" y="79" width="24" height="10" rx="2" fill="#FFFFFF"/>
  <text x="140" y="88" font-size="22" font-weight="700" fill="#0F2A44">MediBook</text>

  <text x="500" y="86" font-size="15" fill="#5F6B7A">Anasayfa</text>
  <text x="610" y="86" font-size="15" fill="#5F6B7A">Doktorlar</text>
  <text x="730" y="86" font-size="15" fill="#5F6B7A">Randevularım</text>
  <circle cx="1080" cy="82" r="18" fill="#DCEBFB"/>

  <!-- Hero -->
  <text x="600" y="190" text-anchor="middle" font-size="30" font-weight="700" fill="#0F2A44">Doktorunuzu seçin, randevunuzu alın</text>
  <text x="600" y="222" text-anchor="middle" font-size="15" fill="#5F6B7A">7/24 online randevu sistemi</text>
  <rect x="520" y="250" width="160" height="42" rx="8" fill="#1E5CA8"/>
  <text x="600" y="277" text-anchor="middle" font-size="14" fill="#FFFFFF" font-weight="600">Doktor ara</text>

  <line x1="60" y1="330" x2="1140" y2="330" stroke="#E1E5EA" stroke-width="1"/>

  <!-- Doctor cards -->
  <g>
    <rect x="100" y="370" width="300" height="290" rx="14" fill="#FFFFFF" stroke="#E1E5EA" stroke-width="1"/>
    <circle cx="250" cy="440" r="30" fill="#DCEBFB"/>
    <circle cx="250" cy="430" r="11" fill="#1E5CA8"/>
    <path d="M 226 460 Q 250 440 274 460" fill="none" stroke="#1E5CA8" stroke-width="4" stroke-linecap="round"/>
    <text x="250" y="500" text-anchor="middle" font-size="17" font-weight="700" fill="#0F2A44">Dr. Ayşe Kaya</text>
    <text x="250" y="524" text-anchor="middle" font-size="14" fill="#5F6B7A">Pediatri</text>
    <rect x="150" y="590" width="200" height="40" rx="8" fill="#FFFFFF" stroke="#1E5CA8" stroke-width="1.5"/>
    <text x="250" y="615" text-anchor="middle" font-size="13" font-weight="600" fill="#1E5CA8">Randevu al</text>
  </g>

  <g>
    <rect x="450" y="370" width="300" height="290" rx="14" fill="#FFFFFF" stroke="#E1E5EA" stroke-width="1"/>
    <circle cx="600" cy="440" r="30" fill="#DCEBFB"/>
    <circle cx="600" cy="430" r="11" fill="#1E5CA8"/>
    <path d="M 576 460 Q 600 440 624 460" fill="none" stroke="#1E5CA8" stroke-width="4" stroke-linecap="round"/>
    <text x="600" y="500" text-anchor="middle" font-size="17" font-weight="700" fill="#0F2A44">Dr. Mert Demir</text>
    <text x="600" y="524" text-anchor="middle" font-size="14" fill="#5F6B7A">Kardiyoloji</text>
    <rect x="500" y="590" width="200" height="40" rx="8" fill="#FFFFFF" stroke="#1E5CA8" stroke-width="1.5"/>
    <text x="600" y="615" text-anchor="middle" font-size="13" font-weight="600" fill="#1E5CA8">Randevu al</text>
  </g>

  <g>
    <rect x="800" y="370" width="300" height="290" rx="14" fill="#FFFFFF" stroke="#E1E5EA" stroke-width="1"/>
    <circle cx="950" cy="440" r="30" fill="#DCEBFB"/>
    <circle cx="950" cy="430" r="11" fill="#1E5CA8"/>
    <path d="M 926 460 Q 950 440 974 460" fill="none" stroke="#1E5CA8" stroke-width="4" stroke-linecap="round"/>
    <text x="950" y="500" text-anchor="middle" font-size="17" font-weight="700" fill="#0F2A44">Dr. Elif Şahin</text>
    <text x="950" y="524" text-anchor="middle" font-size="14" fill="#5F6B7A">Dermatoloji</text>
    <rect x="850" y="590" width="200" height="40" rx="8" fill="#FFFFFF" stroke="#1E5CA8" stroke-width="1.5"/>
    <text x="950" y="615" text-anchor="middle" font-size="13" font-weight="600" fill="#1E5CA8">Randevu al</text>
  </g>
</svg>
